<?xml version="1.0" encoding="utf-8"?>
<!-- Generator: Adobe Illustrator 16.0.0, SVG Export Plug-In . SVG Version: 6.00 Build 0)  -->
<!DOCTYPE svg PUBLIC "-//W3C//DTD SVG 1.1//EN" "http://www.w3.org/Graphics/SVG/1.1/DTD/svg11.dtd">
<svg version="1.1" id="Layer_1" xmlns="http://www.w3.org/2000/svg" xmlns:xlink="http://www.w3.org/1999/xlink" x="0px" y="0px"
	 width="216px" height="216px" viewBox="0 0 216 216" enable-background="new 0 0 216 216" xml:space="preserve">
<path fill="#13F4FF" d="M2,1L2,1L2,1z"/>
<g>
	<g>
		
			<linearGradient id="SVGID_1_" gradientUnits="userSpaceOnUse" x1="-192.7954" y1="662.3369" x2="-191.9932" y2="659.2616" gradientTransform="matrix(1 0 0 1 216 -395)">
			<stop  offset="0" style="stop-color:#FFFFFF;stop-opacity:0"/>
			<stop  offset="0.2245" style="stop-color:#FFFFFF;stop-opacity:0"/>
			<stop  offset="0.7587" style="stop-color:#000000"/>
		</linearGradient>
		<path fill="url(#SVGID_1_)" d="M24,267.313c0,0,2-3,0-3S22,267.313,24,267.313C24,267.313,22,267.313,24,267.313z"/>
	</g>
</g>
<circle opacity="0.2" fill="#FFFFFF" enable-background="new    " cx="113.137" cy="99.963" r="90"/>
<linearGradient id="SVGID_2_" gradientUnits="userSpaceOnUse" x1="-195.1436" y1="591.8291" x2="-83.4241" y2="480.1096" gradientTransform="matrix(1 0 0 1 216 -395)">
	<stop  offset="0.0822" style="stop-color:#FFFFFF;stop-opacity:0"/>
	<stop  offset="0.5752" style="stop-color:#000000"/>
</linearGradient>
<polygon opacity="0.1" fill="url(#SVGID_2_)" enable-background="new    " points="10,136.564 96.881,49.692 167.996,120.805 
	68.806,220 10,220 "/>
<circle fill="#F5F6F7" stroke="#5BA497" stroke-width="3" stroke-miterlimit="10" cx="113.137" cy="99.963" r="57.6"/>
<path opacity="0.2" enable-background="new    " d="M123.387,133.063c5.398,5.398,13.573,5.979,18.26,1.291l0.707-0.707
	c4.688-4.687,4.108-12.86-1.289-18.262L97.891,72.213c-5.398-5.398-13.574-5.977-18.261-1.29l-0.707,0.707
	c-4.687,4.687-4.108,12.862,1.29,18.261L123.387,133.063z"/>
<path opacity="0.2" enable-background="new    " d="M146,78.678C146,72.051,140.628,67,134,67h-1c-6.627,0-12,5.051-12,11.678V86
	l25,25V78.678z"/>
<path opacity="0.2" enable-background="new    " d="M74,127c0,6.627,5.373,12,12,12h1c6.627,0,12-5.373,12-12v-7.322l-25-25V127z"/>
<path fill="#F5F6F7" stroke="#5BA497" stroke-width="3" stroke-miterlimit="10" d="M143.063,112.386
	c5.398,5.399,5.978,13.575,1.291,18.261l-0.707,0.707c-4.688,4.688-12.86,4.108-18.262-1.289L82.213,86.891
	c-5.398-5.398-5.977-13.574-1.29-18.261l0.707-0.707c4.686-4.686,12.862-4.108,18.261,1.29L143.063,112.386z"/>
<path fill="#F5F6F7" stroke="#5BA497" stroke-width="3" stroke-miterlimit="10" d="M78,91.678V124c0,6.627,5.373,12,12,12h1
	c6.627,0,12-5.373,12-12v-7.322L78,91.678z"/>
<path fill="#F5F6F7" stroke="#5BA497" stroke-width="3" stroke-miterlimit="10" d="M148,107V74.678C148,68.051,142.628,63,136,63h-1
	c-6.627,0-12,5.051-12,11.678V82L148,107z"/>
</svg>
