<?xml version="1.0" encoding="utf-8"?>
<!-- Generator: Adobe Illustrator 16.0.0, SVG Export Plug-In . SVG Version: 6.00 Build 0)  -->
<!DOCTYPE svg PUBLIC "-//W3C//DTD SVG 1.1//EN" "http://www.w3.org/Graphics/SVG/1.1/DTD/svg11.dtd">
<svg version="1.1" id="Layer_1" xmlns="http://www.w3.org/2000/svg" xmlns:xlink="http://www.w3.org/1999/xlink" x="0px" y="0px"
	 width="216px" height="216px" viewBox="0 0 216 216" enable-background="new 0 0 216 216" xml:space="preserve">
<path fill="#13F4FF" d="M2,1L2,1L2,1z"/>
<g>
	<g>
		
			<linearGradient id="SVGID_1_" gradientUnits="userSpaceOnUse" x1="-9.1963" y1="-661.3359" x2="-8.3942" y2="-658.2611" gradientTransform="matrix(1 0 0 -1 32.3999 -394)">
			<stop  offset="0" style="stop-color:#FFFFFF;stop-opacity:0"/>
			<stop  offset="0.2245" style="stop-color:#FFFFFF;stop-opacity:0"/>
			<stop  offset="0.7587" style="stop-color:#000000"/>
		</linearGradient>
		<path fill="url(#SVGID_1_)" d="M24,267.313c0,0,2-3,0-3S22,267.313,24,267.313C24,267.313,22,267.313,24,267.313z"/>
	</g>
</g>
<circle opacity="0.2" fill="#FFFFFF" enable-background="new    " cx="113.137" cy="99.963" r="90"/>
<linearGradient id="SVGID_2_" gradientUnits="userSpaceOnUse" x1="-11.5439" y1="-590.8291" x2="100.1755" y2="-479.1096" gradientTransform="matrix(1 0 0 -1 32.3999 -394)">
	<stop  offset="0.0822" style="stop-color:#FFFFFF;stop-opacity:0"/>
	<stop  offset="0.5752" style="stop-color:#000000"/>
</linearGradient>
<polygon opacity="0.1" fill="url(#SVGID_2_)" enable-background="new    " points="10,136.564 96.881,49.692 167.996,120.805 
	68.806,220 10,220 "/>
<circle fill="#F5F6F7" stroke="#5BA497" stroke-width="3" stroke-miterlimit="10" cx="113.137" cy="99.963" r="57.6"/>
<polyline fill="#FFFFFF" stroke="#5BA497" stroke-miterlimit="10" points="113.297,137.178 113.297,137.178 113.297,62.705 "/>
<line fill="#FFFFFF" stroke="#5BA497" stroke-width="2" stroke-miterlimit="10" x1="94.637" y1="118.209" x2="94.637" y2="80.887"/>
<line fill="#FFFFFF" stroke="#5BA497" stroke-width="2" stroke-miterlimit="10" x1="131.959" y1="118.209" x2="131.959" y2="80.887"/>
<line fill="#FFFFFF" stroke="#5BA497" stroke-width="5" stroke-miterlimit="10" x1="94.53" y1="81.356" x2="131.744" y2="118.568"/>
<circle fill="#FFFFFF" stroke="#5BA497" stroke-width="3" stroke-miterlimit="10" cx="113.137" cy="99.964" r="5.848"/>
<circle fill="#FFFFFF" stroke="#5BA497" stroke-width="3" stroke-miterlimit="10" cx="113.137" cy="62.748" r="4.785"/>
<circle fill="#FFFFFF" stroke="#5BA497" stroke-width="3" stroke-miterlimit="10" cx="94.53" cy="81.355" r="5.848"/>
<circle fill="#FFFFFF" stroke="#5BA497" stroke-width="3" stroke-miterlimit="10" cx="131.744" cy="118.57" r="5.85"/>
<circle fill="#FFFFFF" stroke="#5BA497" stroke-width="3" stroke-miterlimit="10" cx="94.53" cy="118.57" r="5.85"/>
<circle fill="#FFFFFF" stroke="#5BA497" stroke-width="3" stroke-miterlimit="10" cx="74.008" cy="99.963" r="4.785"/>
<circle fill="#FFFFFF" stroke="#5BA497" stroke-width="3" stroke-miterlimit="10" cx="113.137" cy="137.179" r="4.784"/>
<circle fill="#FFFFFF" stroke="#5BA497" stroke-width="3" stroke-miterlimit="10" cx="152.266" cy="99.963" r="4.785"/>
<circle fill="#FFFFFF" stroke="#5BA497" stroke-width="3" stroke-miterlimit="10" cx="131.744" cy="81.355" r="5.848"/>
</svg>
