<?xml version="1.0" encoding="utf-8"?>
<!-- Generator: Adobe Illustrator 16.0.0, SVG Export Plug-In . SVG Version: 6.00 Build 0)  -->
<!DOCTYPE svg PUBLIC "-//W3C//DTD SVG 1.1//EN" "http://www.w3.org/Graphics/SVG/1.1/DTD/svg11.dtd">
<svg version="1.1" id="Layer_1" xmlns="http://www.w3.org/2000/svg" xmlns:xlink="http://www.w3.org/1999/xlink" x="0px" y="0px"
	 width="216px" height="216px" viewBox="0 0 216 216" enable-background="new 0 0 216 216" xml:space="preserve">
<path fill="#13F4FF" d="M2,1L2,1L2,1z"/>
<g>
	<g>
		
			<linearGradient id="SVGID_1_" gradientUnits="userSpaceOnUse" x1="-9.1963" y1="-661.3359" x2="-8.3942" y2="-658.2611" gradientTransform="matrix(1 0 0 -1 32.3999 -394)">
			<stop  offset="0" style="stop-color:#FFFFFF;stop-opacity:0"/>
			<stop  offset="0.2245" style="stop-color:#FFFFFF;stop-opacity:0"/>
			<stop  offset="0.7587" style="stop-color:#000000"/>
		</linearGradient>
		<path fill="url(#SVGID_1_)" d="M24,267.313c0,0,2-3,0-3S22,267.313,24,267.313C24,267.313,22,267.313,24,267.313z"/>
	</g>
</g>
<circle opacity="0.2" fill="#FFFFFF" enable-background="new    " cx="113.137" cy="99.963" r="90"/>
<linearGradient id="SVGID_2_" gradientUnits="userSpaceOnUse" x1="-11.5439" y1="-590.8291" x2="100.1755" y2="-479.1096" gradientTransform="matrix(1 0 0 -1 32.3999 -394)">
	<stop  offset="0.0822" style="stop-color:#FFFFFF;stop-opacity:0"/>
	<stop  offset="0.5752" style="stop-color:#000000"/>
</linearGradient>
<polygon opacity="0.1" fill="url(#SVGID_2_)" enable-background="new    " points="10,136.564 96.881,49.692 167.996,120.805 
	68.806,220 10,220 "/>
<circle fill="#F5F6F7" stroke="#5BA497" stroke-width="3" stroke-miterlimit="10" cx="113.137" cy="99.963" r="57.6"/>
<g>
	<path fill="#FFFFFF" stroke="#5BA497" stroke-miterlimit="10" d="M84.455,143.757c-3.345-2.938-5.02-6.728-5.02-11.369
		c0-5.396,2.118-9.698,6.352-12.908c3.959-3.004,8.672-4.507,14.135-4.507V93.769c-0.614-0.82-1.4-1.229-2.355-1.229
		c-2.732,0-4.098,1.571-4.098,4.711c0,0.753,0.17,1.537,0.513,2.356l-2.254,1.126c-0.819-2.458-1.229-4.609-1.229-6.453
		c0-5.599,3.141-8.4,9.424-8.4V65.7c-2.117-1.16-4.063-1.74-5.838-1.74c-3.894,0-6.863,2.424-8.913,7.273l-2.151-0.82
		c0.546-1.911,1.28-3.669,2.202-5.274c0.921-1.604,1.962-3.09,3.125-4.456c2.868-3.209,6.043-4.815,9.527-4.815
		c3.278,0,6.043,1.163,8.297,3.483c0.751,0.752,1.537,1.777,2.358,3.073c0.818,1.298,1.705,2.903,2.662,4.815l5.531,10.959
		c2.457,2.049,5.668,3.074,9.629,3.074c2.936,0,5.701-0.751,8.297-2.254V67.852c-2.459,0-4.473-1.091-6.043-3.279l-5.121,5.02
		l-1.641-1.741l11.986-11.985c2.32,3.551,4.404,5.328,6.25,5.328c0.885,0,2.559-1.366,5.018-4.098l1.74,1.639l-4.711,4.712
		c-1.912,1.776-3.619,3.175-5.121,4.2v58.798c-4.713-0.82-8.57-4.302-11.576-10.45l-5.121-10.958
		c-0.754-1.296-2.289-2.425-4.609-3.381c-2.117-0.751-4.064-1.126-5.84-1.126c-2.458,0-4.986,0.752-7.58,2.254v12.189
		c3.414,0.274,6.555,1.435,9.424,3.482l3.584-3.482l1.744,1.638l-10.04,9.835c-4.031-3.072-8.093-4.61-12.191-4.61
		c-3.347,0-6.216,0.992-8.604,2.972c-2.458,2.185-3.688,4.917-3.688,8.195c0,3.687,1.399,6.759,4.2,9.218
		c2.799,2.391,6.043,3.587,9.731,3.587c0.751,0,1.74-0.103,2.971-0.309l0.511,2.253c-1.434,0.206-2.595,0.308-3.482,0.308
		C91.728,148.059,87.733,146.626,84.455,143.757z M118.055,100.222l-14.034-30.116c-0.273-0.615-0.854-1.366-1.741-2.254v32.37
		c2.32-1.296,4.882-1.946,7.684-1.946C112.967,98.275,115.664,98.925,118.055,100.222z M134.648,81.783
		c-2.596,1.229-5.43,1.844-8.502,1.844c-2.732,0-5.361-0.511-7.887-1.536l12.805,27.452c0.887,2.049,2.08,3.518,3.584,4.405V81.783z
		"/>
</g>
</svg>
