<?xml version="1.0" encoding="utf-8"?>
<!-- Generator: Adobe Illustrator 16.0.0, SVG Export Plug-In . SVG Version: 6.00 Build 0)  -->
<!DOCTYPE svg PUBLIC "-//W3C//DTD SVG 1.1//EN" "http://www.w3.org/Graphics/SVG/1.1/DTD/svg11.dtd">
<svg version="1.1" id="Layer_1" xmlns="http://www.w3.org/2000/svg" xmlns:xlink="http://www.w3.org/1999/xlink" x="0px" y="0px"
	 width="302.4px" height="115.2px" viewBox="0 0 302.4 115.2" enable-background="new 0 0 302.4 115.2" xml:space="preserve">
<g>
	<path fill="#5BA497" d="M17.255,16.55l2.6,11.4l3.101-10.6c0.133-0.601,0.465-1.101,1-1.5c0.532-0.4,1.133-0.601,1.8-0.601
		c0.8,0,1.466,0.3,2,0.9c0.532,0.6,0.8,1.3,0.8,2.1c0,0.135-0.034,0.268-0.1,0.4c-0.067,0.134-0.101,0.267-0.101,0.399l-6.2,18.5
		l16.301,69.4l1.6-8.8c2.533-12.8,5.283-25.583,8.25-38.351c2.966-12.766,6.583-25.082,10.85-36.949c0.801-2.2,1.633-4.4,2.5-6.601
		c0.866-2.2,1.866-4.466,3-6.8l3.801-6.4c0.665-0.8,1.465-1.199,2.399-1.199c0.866,0,1.55,0.3,2.05,0.899
		c0.5,0.601,0.75,1.268,0.75,2c0,0.468-0.167,1.018-0.5,1.65c-0.334,0.634-0.717,1.284-1.149,1.95
		C71.57,9.018,71.12,9.667,70.654,10.3c-0.467,0.635-0.834,1.218-1.1,1.75C65.62,19.984,62.17,28.2,59.205,36.7
		c-2.968,8.5-5.617,17.067-7.95,25.7c-2.335,8.634-4.435,17.183-6.3,25.649c-1.867,8.466-3.635,16.601-5.301,24.4
		c-0.134,0.6-0.5,0.899-1.1,0.899c-0.534,0-0.867-0.267-1-0.8l-18.1-67.1l-17.4,51.8c-0.268,0.4-0.567,0.6-0.9,0.6
		c-0.267,0-0.484-0.117-0.649-0.35c-0.167-0.234-0.25-0.45-0.25-0.65V96.65l17-59.4l-5.3-19.399
		c-0.067-0.133-0.101-0.333-0.101-0.601c0-0.6,0.233-1.2,0.7-1.8c0.466-0.6,1.133-0.9,2-0.9C15.82,14.55,16.721,15.218,17.255,16.55
		z"/>
	<path fill="#5BA497" d="M59.854,70.95l-0.601,3c-0.133,0.534-0.199,1.034-0.199,1.5c0,0.467,0,0.967,0,1.5
		c0,0.6,0.034,1.067,0.1,1.4l0.4,1.1c0,0.133,0.066,0.266,0.199,0.4l0.2,0.199c0.135,0.066,0.234,0.101,0.3,0.101h0.5
		c0.867,0,1.801-0.351,2.801-1.05c1-0.7,1.915-1.5,2.75-2.4c0.832-0.9,1.55-1.732,2.149-2.5c0.601-0.766,0.966-1.25,1.101-1.45
		l1.8-2.5l1.8-2.6c0.6-0.933,1.183-1.833,1.75-2.7c0.565-0.865,1.115-1.766,1.65-2.7l1.6-2.7l1.1-2.1l0.4-0.7
		c0.2-0.532,0.6-0.8,1.2-0.8c0.399,0,0.75,0.135,1.05,0.4c0.3,0.267,0.45,0.6,0.45,1c0,0.199-0.067,0.434-0.2,0.699l-1.7,2.9
		l-0.8,1.3c-0.734,1.135-1.45,2.268-2.15,3.4c-0.699,1.134-1.449,2.267-2.25,3.399l-3.8,5.2c-1,1.335-2.05,2.601-3.149,3.8
		c-1.101,1.2-2.351,2.333-3.75,3.4l-1.601,0.9c-0.334,0.133-0.649,0.25-0.95,0.35c-0.3,0.1-0.615,0.183-0.949,0.25h-1
		c-0.733,0-1.333-0.2-1.801-0.6c-0.465-0.4-0.832-0.835-1.1-1.301c-0.266-0.467-0.466-0.917-0.6-1.35
		c-0.133-0.435-0.2-0.685-0.2-0.75c-0.2-0.534-0.315-1.115-0.351-1.75c-0.032-0.633-0.05-1.216-0.05-1.75l0.101-3.4l0.199-1.699
		c0.135-1.333,0.335-2.684,0.601-4.051c0.267-1.365,0.667-2.715,1.2-4.05l0.399-1.6l0.601-1.5l0.6-1.601
		c0.467-1.133,1.018-2.183,1.65-3.149c0.633-0.966,1.35-1.983,2.149-3.05l1.8-1.4c0.2-0.133,0.483-0.266,0.851-0.4
		c0.365-0.133,0.716-0.199,1.05-0.199h1c0.533,0,1.016,0.149,1.45,0.449c0.433,0.301,0.782,0.585,1.05,0.851l0.6,0.8l0.5,2
		c0.066,0.268,0.101,0.6,0.101,1s-0.018,0.75-0.05,1.05c-0.035,0.3-0.085,0.617-0.15,0.95l-0.3,1.7
		c-0.135,0.867-0.367,1.75-0.7,2.649c-0.334,0.9-0.635,1.617-0.9,2.15l-0.5,1.2l-0.1,0.399c-0.734,1.4-1.635,2.768-2.7,4.101
		c-1.067,1.334-2.334,2.167-3.8,2.5h-0.7l-0.7-0.3l-0.699-0.301l-0.4-0.6l-0.1-0.1L59.854,70.95z M61.653,66.15
		c0,0.667,0.034,1.134,0.1,1.399l0.301,0.9c0.065,0.067,0.133,0.1,0.199,0.1h0.101c0.065,0,0.133-0.016,0.2-0.05
		c0.065-0.032,0.133-0.05,0.199-0.05l0.4-0.3l0.9-1l0.699-1.101c0.266-0.465,0.516-0.965,0.75-1.5
		c0.233-0.532,0.351-1.032,0.351-1.5l0.3-1.199l0.3-1.5c0.065-0.533,0.133-1.033,0.2-1.5c0.065-0.466,0.1-0.966,0.1-1.5l0.101-2.2
		c-0.601,0.6-1.2,1.384-1.8,2.35c-0.601,0.968-1.15,1.968-1.65,3c-0.5,1.034-0.917,2.067-1.25,3.101
		C61.82,64.635,61.653,65.484,61.653,66.15z M66.753,53.851h-0.1c0,0.066,0.033,0.1,0.1,0.1V53.851z"/>
	<path fill="#5BA497" d="M83.752,58.15l-0.3,0.7l-0.8,2.1l-1,2.9c-0.334,0.934-0.635,1.884-0.9,2.85
		c-0.266,0.967-0.532,1.95-0.8,2.95l-0.7,2.899c-0.133,0.535-0.232,1.035-0.3,1.5c-0.065,0.468-0.1,0.935-0.1,1.4l-0.2,1.2l0.2-0.2
		c0.734-0.732,1.367-1.516,1.899-2.35c0.533-0.833,1.166-1.616,1.9-2.351l3.6-5l3.5-5c0.333-0.466,0.7-1.016,1.101-1.649
		c0.399-0.633,0.8-1.25,1.2-1.851c0.399-0.6,0.782-1.115,1.149-1.55c0.366-0.433,0.716-0.65,1.05-0.65c0.4,0,0.716,0.135,0.95,0.4
		c0.233,0.268,0.351,0.567,0.351,0.9c0,0.334-0.15,0.734-0.45,1.199c-0.3,0.468-0.65,0.984-1.05,1.551
		c-0.4,0.566-0.835,1.117-1.301,1.649c-0.467,0.534-0.834,1-1.1,1.4l-7.2,9.899l-3.7,5l-0.5,0.601
		c-0.065,0.065-0.133,0.149-0.199,0.25c-0.066,0.1-0.166,0.216-0.301,0.35c-0.133,0.2-0.3,0.366-0.5,0.5l-0.1,0.101l-0.2,0.1h-0.1
		v0.1h-0.2c0,0.066-0.033,0.101-0.1,0.101h-0.5c-0.466,0-0.816-0.135-1.051-0.4c-0.232-0.267-0.415-0.55-0.55-0.85
		c-0.133-0.3-0.216-0.567-0.25-0.8c-0.032-0.233-0.05-0.316-0.05-0.25c-0.133-0.466-0.2-0.9-0.2-1.301c0-0.399,0-0.832,0-1.3
		c0-1,0.101-2.065,0.3-3.2l0.4-3l2.2-12.3c0.134-0.665,0.417-1.183,0.85-1.55c0.435-0.365,0.95-0.55,1.55-0.55
		c0.733,0,1.351,0.234,1.851,0.7c0.5,0.467,0.75,1.066,0.75,1.8c0,0.2-0.018,0.367-0.05,0.5
		C83.768,57.784,83.752,57.95,83.752,58.15z M83.152,40.851l0.3-3.301c0.065-0.8,0.383-1.399,0.95-1.8
		c0.565-0.399,1.216-0.6,1.95-0.6c0.732,0,1.3,0.334,1.7,1c0.399,0.667,0.6,1.3,0.6,1.899l-0.2,0.801l-1.5,3.1
		c-0.399,0.8-1.034,1.2-1.899,1.2c-0.601,0-1.067-0.2-1.4-0.601c-0.334-0.399-0.5-0.865-0.5-1.399V40.851z"/>
	<path fill="#5BA497" d="M93.051,57.351c1.533-3.733,3.25-7.184,5.15-10.351c1.899-3.165,3.915-6.35,6.05-9.55
		c0.532-2.2,1.25-4.35,2.149-6.45c0.9-2.1,1.684-3.883,2.351-5.35l0.7-1.601c0.133-0.266,0.282-0.532,0.449-0.8
		c0.166-0.266,0.316-0.5,0.45-0.7l0.5-0.899c0.266-0.4,0.5-0.7,0.7-0.9l1.1-1c0.066,0,0.133-0.032,0.2-0.1
		c0.065-0.065,0.166-0.101,0.3-0.101l0.4-0.199c0.065,0,0.216-0.033,0.45-0.101c0.232-0.065,0.415-0.1,0.55-0.1l0.2,0.1h0.1
		c0.4,0,0.883,0.135,1.45,0.4c0.565,0.267,0.982,0.767,1.25,1.5l0.3,0.7c0,1.134-0.034,1.816-0.1,2.05
		c-0.067,0.234-0.167,0.517-0.3,0.85l-0.301,0.9l-0.8,1.7l-2.7,4.399c-0.734,1.2-1.517,2.351-2.35,3.45
		c-0.834,1.1-1.617,2.25-2.35,3.45l-1.4,4.1c-0.734,2.067-1.467,4.101-2.2,6.101c-0.734,2-1.399,4.066-2,6.199l-7.1,20.9
		c2.865-2.865,5.633-5.865,8.3-9c2.666-3.133,5.166-6.5,7.5-10.1c0.2-0.333,0.5-0.5,0.9-0.5c0.665,0,1,0.367,1,1.1
		c0,0.334-0.168,0.8-0.5,1.4c-0.335,0.6-0.734,1.217-1.2,1.85c-0.468,0.635-0.95,1.25-1.45,1.85c-0.5,0.601-0.885,1.101-1.15,1.5
		c-1.534,1.935-3.084,3.835-4.649,5.7c-1.567,1.867-3.218,3.667-4.95,5.4l-4,3.899l-1,0.9l-0.4,0.3c-0.199,0.2-0.433,0.3-0.699,0.3
		c-0.266,0-0.516-0.1-0.75-0.3c-0.233-0.2-0.351-0.435-0.351-0.7c0-0.066,0.018-0.117,0.05-0.149
		c0.035-0.034,0.051-0.085,0.051-0.15v-0.1c1-4.2,2-8.433,3-12.7c1-4.266,2.1-8.5,3.3-12.7l0.899-3.1
		c-0.399,0.534-0.917,1.267-1.55,2.2c-0.634,0.934-1.25,1.85-1.85,2.75c-0.601,0.899-1.15,1.667-1.65,2.3
		c-0.5,0.634-0.85,0.95-1.05,0.95c-0.732,0-1.1-0.366-1.1-1.101C92.951,57.55,92.985,57.417,93.051,57.351z"/>
	<path fill="#5BA497" d="M114.051,46.55l-0.101-0.5c0-0.332-0.034-0.75-0.1-1.25c-0.067-0.5-0.167-1.016-0.3-1.55
		c0-1.2,0.215-2.649,0.649-4.35c0.433-1.7,1.2-3.5,2.3-5.4c1.101-1.899,2.533-3.782,4.301-5.649c1.766-1.866,4.016-3.566,6.75-5.101
		c1.6-1.065,3.232-2.016,4.899-2.85c1.666-0.833,2.8-1.383,3.4-1.65c5.065-2.333,10.45-4.115,16.149-5.35
		c5.699-1.233,11.316-1.851,16.85-1.851c3.201,0,6.383,0.185,9.551,0.551c3.166,0.367,6.215,1.05,9.15,2.05
		c2.932,1,5.732,2.35,8.398,4.05s5.166,3.85,7.5,6.45l0.201,0.3l0.299,0.3c0.066,0.135,0.133,0.25,0.201,0.351
		c0.064,0.1,0.133,0.217,0.199,0.35l0.9,1.3c1.066,1.867,1.965,3.817,2.699,5.851c0.734,2.034,1.102,4.117,1.102,6.25
		c0,3.534-0.852,7.066-2.551,10.6c-1.699,3.534-4.199,6.817-7.5,9.85c-3.301,3.035-7.4,5.685-12.301,7.95
		c-4.898,2.268-10.549,3.835-16.949,4.7c-1.199,0.135-2.4,0.234-3.6,0.3c-1.201,0.067-2.4,0.101-3.6,0.101
		c-0.734,0-1.768-0.033-3.102-0.101c-1.334-0.065-2.648-0.165-3.949-0.3c-1.301-0.133-2.434-0.35-3.4-0.65
		c-0.966-0.3-1.449-0.683-1.449-1.149c0-0.333,0.115-0.601,0.35-0.8c0.232-0.2,0.482-0.301,0.75-0.301h0.3
		c1.865,0.535,3.781,0.935,5.75,1.2c1.965,0.268,3.914,0.4,5.85,0.4c2-0.065,3.982-0.183,5.949-0.351
		c1.967-0.165,3.916-0.516,5.85-1.05l5.701-1.6c2.6-1,5.383-2.3,8.35-3.9c2.965-1.6,5.699-3.482,8.199-5.649
		c2.5-2.166,4.566-4.616,6.201-7.351c1.633-2.732,2.449-5.7,2.449-8.899c0.066-0.466,0.1-0.934,0.1-1.4c0-0.466,0-0.933,0-1.4
		c-0.266-1.865-0.699-3.683-1.299-5.449c-0.6-1.766-1.5-3.416-2.701-4.95l-1.299-1.7l-0.4-0.5c-1.334-1.666-3-3.115-5-4.35
		c-2-1.233-4.066-2.233-6.199-3c-2.135-0.766-4.135-1.333-6-1.7c-1.867-0.366-3.301-0.55-4.301-0.55l-1.4-0.2
		c-1.268-0.065-2.5-0.116-3.699-0.15c-1.201-0.032-2.436-0.05-3.701-0.05c-3.867,0-7.834,0.317-11.898,0.95
		c-4.068,0.634-8.035,1.517-11.9,2.649c-3.867,1.135-7.534,2.484-11,4.051c-3.467,1.566-6.55,3.3-9.25,5.199
		c-2.7,1.9-4.935,3.935-6.7,6.101c-1.767,2.167-2.884,4.384-3.35,6.649c-0.2,0.935-0.3,1.835-0.3,2.7v1.4c0,0.734-0.335,1.1-1,1.1
		C114.516,47.25,114.184,47.018,114.051,46.55z M137.25,88.55l16.9-59.1c0.199-0.666,0.582-1.183,1.15-1.55
		c0.564-0.366,1.148-0.55,1.75-0.55c0.799,0,1.449,0.3,1.949,0.899c0.5,0.601,0.75,1.268,0.75,2c0,0.4-0.035,0.7-0.1,0.9l-20.3,58.1
		c-0.268,0.466-0.601,0.7-1,0.7c-0.734,0-1.101-0.4-1.101-1.2V88.55z"/>
	<path fill="#5BA497" d="M210.148,58.15l-0.299,0.7l-0.801,2.1l-1,2.9c-0.334,0.934-0.635,1.884-0.9,2.85
		c-0.266,0.967-0.531,1.95-0.799,2.95l-0.701,2.899c-0.133,0.535-0.232,1.035-0.299,1.5c-0.066,0.468-0.1,0.935-0.1,1.4l-0.201,1.2
		l0.201-0.2c0.734-0.732,1.367-1.516,1.898-2.35c0.533-0.833,1.166-1.616,1.9-2.351l3.6-5l3.5-5
		c0.334-0.466,0.701-1.016,1.102-1.649c0.398-0.633,0.799-1.25,1.199-1.851c0.4-0.6,0.783-1.115,1.15-1.55
		c0.365-0.433,0.715-0.65,1.049-0.65c0.4,0,0.717,0.135,0.951,0.4c0.232,0.268,0.35,0.567,0.35,0.9c0,0.334-0.15,0.734-0.449,1.199
		c-0.301,0.468-0.65,0.984-1.051,1.551s-0.834,1.117-1.301,1.649c-0.467,0.534-0.834,1-1.1,1.4l-7.199,9.899l-3.701,5l-0.5,0.601
		c-0.064,0.065-0.133,0.149-0.199,0.25c-0.066,0.1-0.166,0.216-0.301,0.35c-0.133,0.2-0.299,0.366-0.5,0.5l-0.1,0.101l-0.199,0.1
		h-0.1v0.1h-0.201c0,0.066-0.033,0.101-0.1,0.101h-0.5c-0.465,0-0.816-0.135-1.051-0.4c-0.232-0.267-0.414-0.55-0.549-0.85
		c-0.133-0.3-0.217-0.567-0.25-0.8c-0.033-0.233-0.051-0.316-0.051-0.25c-0.133-0.466-0.199-0.9-0.199-1.301c0-0.399,0-0.832,0-1.3
		c0-1,0.1-2.065,0.299-3.2l0.4-3l2.201-12.3c0.133-0.665,0.416-1.183,0.85-1.55c0.434-0.365,0.949-0.55,1.549-0.55
		c0.734,0,1.352,0.234,1.852,0.7c0.5,0.467,0.75,1.066,0.75,1.8c0,0.2-0.018,0.367-0.051,0.5
		C210.164,57.784,210.148,57.95,210.148,58.15z M209.549,40.851l0.301-3.301c0.064-0.8,0.383-1.399,0.949-1.8
		c0.566-0.399,1.217-0.6,1.951-0.6c0.732,0,1.299,0.334,1.699,1c0.4,0.667,0.6,1.3,0.6,1.899l-0.199,0.801l-1.5,3.1
		c-0.4,0.8-1.035,1.2-1.9,1.2c-0.6,0-1.066-0.2-1.4-0.601c-0.334-0.399-0.5-0.865-0.5-1.399V40.851z"/>
	<path fill="#5BA497" d="M224.748,53.95c-0.467,0.935-0.9,1.85-1.301,2.75c-0.398,0.9-0.799,1.817-1.199,2.75l-4.1,9.6
		c1.066-1.532,2.199-3.05,3.4-4.55c1.199-1.5,2.465-2.915,3.799-4.25c0.334-0.399,0.684-0.8,1.051-1.2
		c0.365-0.399,0.715-0.766,1.049-1.1l2.102-1.7l0.799-0.399h0.201l0.199-0.101c0.133,0,0.215-0.016,0.25-0.05
		c0.033-0.033,0.115-0.05,0.25-0.05c0.066,0,0.133,0.034,0.199,0.1c0.201,0,0.434,0.067,0.701,0.2c0.266,0.135,0.465,0.234,0.6,0.3
		l0.5,0.5l0.4,0.9l0.199,0.6c0.133,0.2,0.201,0.585,0.201,1.15c0,0.567,0,0.917,0,1.05c0,1.067-0.035,2.1-0.102,3.1
		s-0.166,2.035-0.299,3.101l-0.301,3v2.1l1.5-1.899c0.865-1.133,1.701-2.351,2.5-3.65c0.801-1.3,1.566-2.615,2.301-3.95l2.199-4
		l0.301-0.6l0.299-0.7c0.334-0.533,0.801-0.8,1.4-0.8c0.4,0,0.717,0.149,0.951,0.45c0.232,0.3,0.35,0.649,0.35,1.05
		c0,0.067,0,0.185,0,0.35c0,0.167-0.068,0.25-0.201,0.25l-3.1,5.3c-0.533,0.801-1.049,1.668-1.549,2.601
		c-0.5,0.935-1.018,1.8-1.551,2.6l-2.699,3.9c-0.201,0.334-0.436,0.634-0.701,0.899c-0.268,0.268-0.6,0.601-1,1l-0.5,0.301
		c-0.135,0.134-0.268,0.199-0.4,0.199l-0.5,0.101c-0.199,0-0.484-0.033-0.85-0.101c-0.367-0.065-0.65-0.332-0.85-0.8l-0.5-0.899
		l-0.1-0.4l-0.301-6.4l-0.199-3.8v-1.8c-0.4,0.334-0.701,0.635-0.9,0.9l-1.1,1.1l-4.1,4.3l-4.102,4.5
		c-0.664,0.734-1.332,1.484-2,2.25c-0.664,0.768-1.299,1.55-1.898,2.351l-0.9,1.199l-0.9,1.101l-1.199,1.8
		c-0.066,0.065-0.102,0.133-0.102,0.2c0,0.065-0.064,0.133-0.199,0.2l-0.199,0.5c-0.066,0-0.102,0.032-0.102,0.1l-0.299,0.3
		c-0.066,0-0.1,0.033-0.1,0.101l-0.5,0.199h-0.301c-0.199,0-0.5-0.1-0.9-0.3s-0.6-0.567-0.6-1.1c0-0.335,0.018-0.484,0.051-0.45
		c0.033,0.033,0.049-0.018,0.049-0.15l0.1-0.1v-0.1c0.068,0,0.102-0.035,0.102-0.101l0.6-0.899V78.75
		c0.467-0.732,0.867-1.532,1.199-2.399c0.334-0.866,0.668-1.766,1-2.7l1-2.8l0.6-1.4c0.135-0.466,0.285-0.933,0.451-1.4
		c0.166-0.465,0.35-0.933,0.549-1.399l0.9-2.9c0.6-1.933,1.234-3.85,1.9-5.75c0.668-1.899,1.234-3.85,1.699-5.85
		c0.135-0.533,0.451-0.983,0.951-1.351c0.5-0.365,1.016-0.55,1.549-0.55c0.734,0,1.352,0.268,1.852,0.8
		c0.5,0.535,0.75,1.168,0.75,1.9C225.049,53.417,224.947,53.75,224.748,53.95z M210.248,79.55v0.101c0-0.067,0.035-0.101,0.1-0.101
		H210.248z"/>
	<path fill="#5BA497" d="M241.848,70.95l-0.6,3c-0.133,0.534-0.201,1.034-0.201,1.5c0,0.467,0,0.967,0,1.5
		c0,0.6,0.035,1.067,0.1,1.4l0.4,1.1c0,0.133,0.068,0.266,0.201,0.4l0.199,0.199c0.135,0.066,0.234,0.101,0.301,0.101h0.5
		c0.867,0,1.799-0.351,2.799-1.05c1-0.7,1.916-1.5,2.75-2.4s1.551-1.732,2.15-2.5c0.6-0.766,0.965-1.25,1.1-1.45l1.801-2.5
		l1.799-2.6c0.602-0.933,1.184-1.833,1.75-2.7c0.566-0.865,1.117-1.766,1.65-2.7l1.6-2.7l1.102-2.1l0.398-0.7
		c0.201-0.532,0.602-0.8,1.201-0.8c0.4,0,0.75,0.135,1.049,0.4c0.301,0.267,0.451,0.6,0.451,1c0,0.199-0.068,0.434-0.201,0.699
		l-1.699,2.9l-0.801,1.3c-0.734,1.135-1.449,2.268-2.148,3.4c-0.701,1.134-1.451,2.267-2.25,3.399l-3.801,5.2
		c-1,1.335-2.051,2.601-3.15,3.8c-1.1,1.2-2.35,2.333-3.75,3.4l-1.6,0.9c-0.334,0.133-0.65,0.25-0.949,0.35
		c-0.301,0.1-0.617,0.183-0.951,0.25h-1c-0.732,0-1.332-0.2-1.799-0.6c-0.467-0.4-0.834-0.835-1.102-1.301
		c-0.266-0.467-0.465-0.917-0.6-1.35c-0.133-0.435-0.199-0.685-0.199-0.75c-0.201-0.534-0.316-1.115-0.35-1.75
		c-0.033-0.633-0.051-1.216-0.051-1.75l0.1-3.4l0.201-1.699c0.133-1.333,0.334-2.684,0.6-4.051c0.268-1.365,0.666-2.715,1.199-4.05
		l0.4-1.6l0.6-1.5l0.6-1.601c0.469-1.133,1.018-2.183,1.65-3.149c0.633-0.966,1.35-1.983,2.15-3.05l1.801-1.4
		c0.199-0.133,0.482-0.266,0.85-0.4c0.365-0.133,0.715-0.199,1.049-0.199h1c0.533,0,1.016,0.149,1.451,0.449
		c0.432,0.301,0.783,0.585,1.049,0.851l0.602,0.8l0.5,2c0.064,0.268,0.1,0.6,0.1,1s-0.018,0.75-0.051,1.05s-0.084,0.617-0.15,0.95
		l-0.299,1.7c-0.135,0.867-0.367,1.75-0.701,2.649c-0.334,0.9-0.633,1.617-0.898,2.15l-0.5,1.2l-0.102,0.399
		c-0.734,1.4-1.633,2.768-2.699,4.101c-1.066,1.334-2.334,2.167-3.801,2.5h-0.699l-0.699-0.3l-0.701-0.301l-0.4-0.6l-0.1-0.1
		L241.848,70.95z M243.646,66.15c0,0.667,0.035,1.134,0.102,1.399l0.299,0.9c0.066,0.067,0.133,0.1,0.201,0.1h0.1
		c0.064,0,0.133-0.016,0.199-0.05c0.066-0.032,0.133-0.05,0.201-0.05l0.398-0.3l0.9-1l0.701-1.101c0.266-0.465,0.516-0.965,0.75-1.5
		c0.232-0.532,0.35-1.032,0.35-1.5l0.299-1.199l0.301-1.5c0.066-0.533,0.133-1.033,0.199-1.5c0.066-0.466,0.102-0.966,0.102-1.5
		l0.1-2.2c-0.6,0.6-1.201,1.384-1.801,2.35c-0.6,0.968-1.15,1.968-1.65,3c-0.5,1.034-0.916,2.067-1.25,3.101
		C243.814,64.635,243.646,65.484,243.646,66.15z M248.748,53.851h-0.102c0,0.066,0.033,0.1,0.102,0.1V53.851z"/>
	<path fill="#5BA497" d="M272.246,45.95c0.266-0.8,0.551-1.6,0.85-2.4c0.301-0.8,0.615-1.6,0.951-2.399l0.799-2.4
		c0.334-1.333,0.717-2.583,1.15-3.75c0.434-1.165,0.816-2.383,1.15-3.649l1.1-3.601l0.301-1.1l0.1-0.2c0.4-1.133,1.199-1.7,2.4-1.7
		c0.732,0,1.332,0.268,1.799,0.8c0.467,0.535,0.701,1.135,0.701,1.801c0,0.334-0.035,0.566-0.102,0.699l-1,3.5l-1.1,3.4
		c-1,3.4-2.033,6.9-3.1,10.5s-2.066,7.185-3,10.75c-0.934,3.567-1.75,7.084-2.449,10.55c-0.701,3.468-1.25,6.734-1.65,9.8
		c-0.201,1.335-0.301,2.633-0.301,3.9l0.5-0.5c1-1.467,2-3.033,3-4.7c1-1.665,2-3.3,3-4.899l7.5-13.301c0.201-0.332,0.533-0.5,1-0.5
		c0.732,0,1.1,0.335,1.1,1c0,0.335-0.148,0.817-0.449,1.45c-0.301,0.635-0.65,1.317-1.051,2.05c-0.398,0.734-0.816,1.435-1.25,2.101
		c-0.434,0.667-0.783,1.234-1.049,1.7c-1.535,2.734-3.135,5.434-4.801,8.1c-1.666,2.667-3.367,5.433-5.1,8.3
		c-0.199,0.2-0.434,0.5-0.699,0.9c-0.268,0.399-0.551,0.8-0.852,1.2c-0.299,0.399-0.6,0.75-0.898,1.05
		c-0.301,0.3-0.586,0.45-0.85,0.45c-0.4,0-0.719-0.2-0.951-0.601c-0.234-0.399-0.385-0.867-0.449-1.399
		c-0.068-0.535-0.1-1.067-0.1-1.601c0-0.534,0-0.935,0-1.2c0-4.199,0.35-8.449,1.049-12.75c0.701-4.3,1.482-8.482,2.35-12.55
		c0-0.133,0.033-0.232,0.1-0.3c-1.066,1.6-2.016,3.417-2.85,5.45c-0.834,2.034-1.75,3.984-2.75,5.85l-2.5,4.5
		c-0.934,1.601-1.898,3.034-2.898,4.3l-0.9,1.101l-1.1,0.899l-1.301,0.9l-0.699,0.2l-0.5,0.1c-0.934,0-1.5-0.232-1.701-0.7
		c-0.133-0.199-0.199-0.433-0.199-0.699l-0.201-0.4c0-1.333,0.117-2.482,0.352-3.45c0.234-0.966,0.516-2.083,0.85-3.35l0.9-2.4
		c0.799-1.865,1.6-3.716,2.398-5.55c0.801-1.833,1.801-3.55,3-5.15l0.9-1.199c0.334-0.333,0.684-0.633,1.051-0.9
		c0.365-0.266,0.814-0.533,1.35-0.8l0.6-0.2h0.801c1.266,0,2.064,0.567,2.4,1.7C270.146,51.784,271.246,48.885,272.246,45.95z
		 M266.246,57.45c0.066,0,0.1-0.033,0.1-0.1l-0.398,0.199l-0.5,0.2l-1.602,1.5c-0.266,0.335-0.533,0.65-0.799,0.95
		s-0.5,0.617-0.701,0.95l-1.398,2c-0.934,1.399-1.75,2.884-2.451,4.45c-0.699,1.566-1.283,3.117-1.75,4.649l-0.5,2.3v1.101l0.1,0.2
		l0.602-0.2l0.799-0.601c0.334-0.199,0.635-0.465,0.9-0.8c0.268-0.333,0.5-0.633,0.699-0.899l1.5-2l1.201-2.2l1.299-2.2
		c0.734-1.666,1.484-3.283,2.25-4.85s1.516-3.15,2.25-4.75c-0.133,0.066-0.316,0.134-0.549,0.199
		c-0.234,0.067-0.451,0.101-0.65,0.101C266.512,57.65,266.379,57.585,266.246,57.45z"/>
	<path fill="#5BA497" d="M293.346,53.55h-0.201c0.066,0.067-0.033,0.135-0.299,0.2c-0.268,0.067-0.467,0.167-0.6,0.3
		c-0.469,0.2-0.984,0.551-1.551,1.051s-1.084,1.017-1.551,1.55l-0.898,1.1c-1.867,2.335-3.283,4.718-4.25,7.15
		c-0.967,2.435-1.916,5.149-2.852,8.149l-0.199,1.5c-0.066,0.335-0.1,0.801-0.1,1.4l0.1,1.2l0.199,0.2V77.25h0.102l0.898-0.7
		l1-1.199l0.4-0.601c0.334-0.466,0.701-1.032,1.1-1.7c0.4-0.665,0.785-1.383,1.15-2.149c0.365-0.766,0.701-1.55,1-2.351
		c0.301-0.8,0.516-1.532,0.65-2.199l0.301-0.801c0.064-0.133,0.1-0.25,0.1-0.35s0.064-0.216,0.199-0.35l0.301-1.101l0.299-1.2v-0.1
		l0.102-0.2v-0.2c0-0.065,0.031-0.133,0.1-0.199l0.1-0.301c0.4-0.8,1.033-1.199,1.9-1.199c0.732,0,1.299,0.234,1.699,0.699
		c0.4,0.468,0.6,0.968,0.6,1.5v0.301l-0.299,1.5c-0.135,0.734-0.268,1.484-0.4,2.25c-0.135,0.767-0.199,1.517-0.199,2.25l2.199-3.7
		c0.4-0.733,0.883-1.616,1.449-2.65c0.566-1.032,1.15-2.032,1.75-3c0.602-0.966,1.184-1.782,1.75-2.45c0.566-0.665,1.051-1,1.451-1
		s0.715,0.15,0.949,0.45c0.232,0.3,0.35,0.617,0.35,0.95c0,0.2-0.066,0.435-0.199,0.7l-5.1,8.399c-0.467,0.734-0.885,1.45-1.25,2.15
		c-0.367,0.7-0.75,1.417-1.15,2.15l-1.199,2.1c-0.336,0.6-0.635,1.25-0.9,1.95c-0.268,0.7-0.734,1.05-1.4,1.05
		c-0.535,0-0.934-0.15-1.199-0.45c-0.268-0.3-0.4-0.583-0.4-0.85l-0.4-1.4l-0.199-1.7c-0.068-0.065-0.102-0.199-0.102-0.399
		l-0.5,0.8l-1.699,2.8l-1.4,2.101c-0.533,0.534-1.232,1.117-2.1,1.75c-0.865,0.633-1.332,0.982-1.4,1.05h-0.5
		c-0.4,0-0.799-0.117-1.199-0.351c-0.4-0.234-0.666-0.517-0.801-0.85l-0.299-0.5c-0.201-0.666-0.301-1.3-0.301-1.9
		c0-1,0.084-2,0.25-3c0.168-1,0.367-1.949,0.6-2.85c0.234-0.9,0.451-1.7,0.65-2.4c0.199-0.699,0.334-1.215,0.4-1.55l1.1-3.1
		c0.734-1.866,1.4-3.4,2-4.601c0.6-1.199,1.135-2.165,1.6-2.899l0.9-1.4c1.133-1.732,2.25-3.05,3.35-3.95
		c1.1-0.899,1.684-1.315,1.75-1.25l0.1-0.1c0.334-0.266,0.766-0.4,1.301-0.4c0.732,0,1.35,0.25,1.85,0.75s0.75,1.117,0.75,1.851
		c0,1-0.4,1.734-1.199,2.2L293.346,53.55z"/>
</g>
</svg>
