<?xml version="1.0" encoding="utf-8"?>
<!-- Generator: Adobe Illustrator 16.0.0, SVG Export Plug-In . SVG Version: 6.00 Build 0)  -->
<!DOCTYPE svg PUBLIC "-//W3C//DTD SVG 1.1//EN" "http://www.w3.org/Graphics/SVG/1.1/DTD/svg11.dtd">
<svg version="1.1" id="Layer_1" xmlns="http://www.w3.org/2000/svg" xmlns:xlink="http://www.w3.org/1999/xlink" x="0px" y="0px"
	 width="244.8px" height="360px" viewBox="0 0 244.8 360" enable-background="new 0 0 244.8 360" xml:space="preserve">
<g>
	<path fill="#C9E6CF" d="M118.354,29.52V0H3.244v40.076h54.258L1.817,119.161v29.616h118.06v-40.075H62.664L118.354,29.52z
		 M110.138,118.44v20.599H11.556v-16.793l64.713-91.908H12.982V9.738h95.634v16.7L43.909,118.44H110.138z"/>
	<polygon fill="#FFFFFF" points="108.616,26.438 108.616,9.738 12.982,9.738 12.982,30.337 76.269,30.337 11.556,122.245 
		11.556,139.039 110.138,139.039 110.138,118.44 43.909,118.44 	"/>
	<path fill="#C9E6CF" d="M196.406,230.928l44.559-63.357v-23.621h-92.105v32.066h43.416l-44.558,63.28v23.699h94.465v-32.066
		H196.406z M234.391,255.202h-78.879v-13.438l51.778-73.542h-50.638v-16.481h76.52v13.362l-51.772,73.615h52.991V255.202z"/>
	<polygon fill="#FFFFFF" points="233.172,165.104 233.172,151.742 156.652,151.742 156.652,168.223 207.29,168.223 155.512,241.765 
		155.512,255.202 234.391,255.202 234.391,238.719 181.399,238.719 	"/>
	<path fill="#C9E6CF" d="M112.302,284.775v-18.617H39.695v25.276H73.92l-35.124,49.884V360h74.464v-25.279H77.176L112.302,284.775z
		 M107.119,340.863v12.992H44.94v-10.59l40.816-57.976H45.839v-12.992h60.321v10.535l-40.813,58.03H107.119z"/>
	<polygon fill="#FFFFFF" points="106.16,282.833 106.16,272.298 45.839,272.298 45.839,285.29 85.757,285.29 44.94,343.266 
		44.94,353.855 107.119,353.855 107.119,340.863 65.347,340.863 	"/>
</g>
</svg>
